<?xml version="1.0" standalone="no"?><!DOCTYPE svg PUBLIC "-//W3C//DTD SVG 1.1//EN" "http://www.w3.org/Graphics/SVG/1.1/DTD/svg11.dtd"><svg t="1582358686451" class="icon" viewBox="0 0 1024 1024" version="1.1" xmlns="http://www.w3.org/2000/svg" p-id="1298" width="128" height="128" xmlns:xlink="http://www.w3.org/1999/xlink"><defs><style type="text/css"></style></defs><path d="M512 16C238 16 16 238 16 512c0 180.2 96.4 337.4 240 424.2V576c0-17.6 14.4-32 32-32s32 14.4 32 32v393.4c59 24.8 124 38.6 192 38.6s133-13.8 192-38.6V576c0-17.6 14.4-32 32-32s32 14.4 32 32v360.2C911.6 849.4 1008 692 1008 512 1008 238 786 16 512 16z m-131 433c-29.6-26.4-92.4-26.4-122 0L240 466c-7.6 6.6-18.6 8-27.4 3.2-8.8-4.8-13.8-14.8-12.2-24.8 8-50.4 68.4-84.2 119.8-84.2S432 394 440 444.4c1.6 10-3.4 20-12.2 24.8-11.6 6.2-22.4 1.4-27.4-3.2l-19.4-17zM512 832c-53 0-96-57.4-96-128s43-128 96-128 96 57.4 96 128-43 128-96 128z m299.6-363c-11.6 6.2-22.4 1.4-27.4-3.2l-19-17c-29.6-26.4-92.4-26.4-122 0L624 466c-7.6 6.6-18.6 8-27.4 3.2-8.8-4.8-13.8-14.8-12.2-24.8 8-50.4 68.4-84.2 119.8-84.2S816 394 824 444.4c1.2 9.8-3.6 19.8-12.4 24.6z" p-id="1299" fill="#1296db"></path></svg>